solid SingleFLAG
facet normal 0.0 0.0 1.0
  outer loop
    vertex 3.0461643299609458 4.947151847617647 4.589448860340726
    vertex 2.7008383342141724 7.286576408197367 4.589448860340726
    vertex 2.4699964684425817 5.353146980665742 4.589448860340726
  endloop
endfacet
facet normal 0.0 0.0 1.0
  outer loop
    vertex 2.7008383342141724 7.286576408197367 4.589448860340726
    vertex 3.0461643299609458 4.947151847617647 4.589448860340726
    vertex 2.768732091691629 6.874447536246418 4.589448860340726
  endloop
endfacet
facet normal 0.0 0.0 1.0
  outer loop
    vertex 2.768732091691629 6.874447536246418 4.589448860340726
    vertex 3.0461643299609458 4.947151847617647 4.589448860340726
    vertex 2.9409792265804358 6.4939338125483514 4.589448860340726
  endloop
endfacet
facet normal 0.0 0.0 1.0
  outer loop
    vertex 2.9409792265804358 6.4939338125483514 4.589448860340726
    vertex 3.0461643299609458 4.947151847617647 4.589448860340726
    vertex 3.205841381289768 6.170966618544534 4.589448860340726
  endloop
endfacet
facet normal 0.0 0.0 1.0
  outer loop
    vertex 3.205841381289768 6.170966618544534 4.589448860340726
    vertex 3.0461643299609458 4.947151847617647 4.589448860340726
    vertex 3.7077790203310594 4.704113878995767 4.589448860340726
  endloop
endfacet
facet normal 0.0 0.0 1.0
  outer loop
    vertex 3.205841381289768 6.170966618544534 4.589448860340726
    vertex 3.7077790203310594 4.704113878995767 4.589448860340726
    vertex 3.545268637681591 5.9275556347778 4.589448860340726
  endloop
endfacet
facet normal 0.0 0.0 1.0
  outer loop
    vertex 3.545268637681591 5.9275556347778 4.589448860340726
    vertex 3.7077790203310594 4.704113878995767 4.589448860340726
    vertex 3.9361295891628676 5.780288917536182 4.589448860340726
  endloop
endfacet
facet normal 0.0 0.0 1.0
  outer loop
    vertex 3.9361295891628676 5.780288917536182 4.589448860340726
    vertex 3.7077790203310594 4.704113878995767 4.589448860340726
    vertex 4.40975259177416 4.640595710722454 4.589448860340726
  endloop
endfacet
facet normal 0.0 0.0 1.0
  outer loop
    vertex 3.9361295891628676 5.780288917536182 4.589448860340726
    vertex 4.40975259177416 4.640595710722454 4.589448860340726
    vertex 4.351787707818407 5.73920245022994 4.589448860340726
  endloop
endfacet
facet normal 0.0 0.0 1.0
  outer loop
    vertex 4.351787707818407 5.73920245022994 4.589448860340726
    vertex 4.40975259177416 4.640595710722454 4.589448860340726
    vertex 4.763916579769358 5.8070962077073975 4.589448860340726
  endloop
endfacet
facet normal 0.0 0.0 1.0
  outer loop
    vertex 4.763916579769358 5.8070962077073975 4.589448860340726
    vertex 4.40975259177416 4.640595710722454 4.589448860340726
    vertex 5.104246705462585 4.760926000996795 4.589448860340726
  endloop
endfacet
facet normal 0.0 0.0 1.0
  outer loop
    vertex 4.763916579769358 5.8070962077073975 4.589448860340726
    vertex 5.104246705462585 4.760926000996795 4.589448860340726
    vertex 5.1444303034674235 5.979343342596204 4.589448860340726
  endloop
endfacet
facet normal 0.0 0.0 1.0
  outer loop
    vertex 5.1444303034674235 5.979343342596204 4.589448860340726
    vertex 5.104246705462585 4.760926000996795 4.589448860340726
    vertex 5.743932735254264 5.056904439391802 4.589448860340726
  endloop
endfacet
facet normal 0.0 0.0 1.0
  outer loop
    vertex 5.1444303034674235 5.979343342596204 4.589448860340726
    vertex 5.743932735254264 5.056904439391802 4.589448860340726
    vertex 5.467397497471241 6.244205497305536 4.589448860340726
  endloop
endfacet
facet normal 0.0 0.0 1.0
  outer loop
    vertex 5.467397497471241 6.244205497305536 4.589448860340726
    vertex 5.743932735254264 5.056904439391802 4.589448860340726
    vertex 5.710808481237975 6.583632753697359 4.589448860340726
  endloop
endfacet
facet normal 0.0 0.0 1.0
  outer loop
    vertex 5.710808481237975 6.583632753697359 4.589448860340726
    vertex 5.743932735254264 5.056904439391802 4.589448860340726
    vertex 5.858075198479593 6.974493705178635 4.589448860340726
  endloop
endfacet
facet normal 0.0 0.0 1.0
  outer loop
    vertex 5.858075198479593 6.974493705178635 4.589448860340726
    vertex 5.743932735254264 5.056904439391802 4.589448860340726
    vertex 6.285217135350033 5.5083605844583525 4.589448860340726
  endloop
endfacet
facet normal 0.0 0.0 1.0
  outer loop
    vertex 5.858075198479593 6.974493705178635 4.589448860340726
    vertex 6.285217135350033 5.5083605844583525 4.589448860340726
    vertex 5.899161665785835 7.390151823834176 4.589448860340726
  endloop
endfacet
facet normal 0.0 0.0 1.0
  outer loop
    vertex 5.899161665785835 7.390151823834176 4.589448860340726
    vertex 6.285217135350033 5.5083605844583525 4.589448860340726
    vertex 6.130003531557425 9.3235812513658 4.589448860340726
  endloop
endfacet
facet normal 0.0 0.0 1.0
  outer loop
    vertex 6.130003531557425 9.3235812513658 4.589448860340726
    vertex 6.285217135350033 5.5083605844583525 4.589448860340726
    vertex 6.581459676623978 8.782296851270038 4.589448860340726
  endloop
endfacet
facet normal 0.0 0.0 1.0
  outer loop
    vertex 6.581459676623978 8.782296851270038 4.589448860340726
    vertex 6.285217135350033 5.5083605844583525 4.589448860340726
    vertex 6.691212268398134 6.084528445976719 4.589448860340726
  endloop
endfacet
facet normal 0.0 0.0 1.0
  outer loop
    vertex 6.581459676623978 8.782296851270038 4.589448860340726
    vertex 6.691212268398134 6.084528445976719 4.589448860340726
    vertex 6.877438115018976 8.142610821478359 4.589448860340726
  endloop
endfacet
facet normal 0.0 0.0 1.0
  outer loop
    vertex 6.877438115018976 8.142610821478359 4.589448860340726
    vertex 6.691212268398134 6.084528445976719 4.589448860340726
    vertex 6.934250237020007 6.746143136346827 4.589448860340726
  endloop
endfacet
facet normal 0.0 0.0 1.0
  outer loop
    vertex 6.877438115018976 8.142610821478359 4.589448860340726
    vertex 6.934250237020007 6.746143136346827 4.589448860340726
    vertex 6.997768405293321 7.448116707789927 4.589448860340726
  endloop
endfacet
facet normal 0.0 0.0 1.0
  outer loop
    vertex 1.72256188498103 6.5341174105531845 4.589448860340726
    vertex 1.6657497629800004 7.930585095684721 4.589448860340726
    vertex 1.6022315947066854 7.228611524241615 4.589448860340726
  endloop
endfacet
facet normal 0.0 0.0 1.0
  outer loop
    vertex 1.6657497629800004 7.930585095684721 4.589448860340726
    vertex 1.72256188498103 6.5341174105531845 4.589448860340726
    vertex 1.9087877316018729 8.59219978605483 4.589448860340726
  endloop
endfacet
facet normal 0.0 0.0 1.0
  outer loop
    vertex 1.9087877316018729 8.59219978605483 4.589448860340726
    vertex 1.72256188498103 6.5341174105531845 4.589448860340726
    vertex 2.018540323376029 5.894431380761511 4.589448860340726
  endloop
endfacet
facet normal 0.0 0.0 1.0
  outer loop
    vertex 1.9087877316018729 8.59219978605483 4.589448860340726
    vertex 2.018540323376029 5.894431380761511 4.589448860340726
    vertex 2.3147828646499744 9.168367647573193 4.589448860340726
  endloop
endfacet
facet normal 0.0 0.0 1.0
  outer loop
    vertex 2.3147828646499744 9.168367647573193 4.589448860340726
    vertex 2.018540323376029 5.894431380761511 4.589448860340726
    vertex 2.4699964684425817 5.353146980665742 4.589448860340726
  endloop
endfacet
facet normal 0.0 0.0 1.0
  outer loop
    vertex 2.3147828646499744 9.168367647573193 4.589448860340726
    vertex 2.4699964684425817 5.353146980665742 4.589448860340726
    vertex 2.856067264745743 9.61982379263974 4.589448860340726
  endloop
endfacet
facet normal 0.0 0.0 1.0
  outer loop
    vertex 2.856067264745743 9.61982379263974 4.589448860340726
    vertex 2.4699964684425817 5.353146980665742 4.589448860340726
    vertex 2.7008383342141724 7.286576408197367 4.589448860340726
  endloop
endfacet
facet normal 0.0 0.0 1.0
  outer loop
    vertex 2.856067264745743 9.61982379263974 4.589448860340726
    vertex 2.7008383342141724 7.286576408197367 4.589448860340726
    vertex 2.741924801520413 7.702234526852907 4.589448860340726
  endloop
endfacet
facet normal 0.0 0.0 1.0
  outer loop
    vertex 2.856067264745743 9.61982379263974 4.589448860340726
    vertex 2.741924801520413 7.702234526852907 4.589448860340726
    vertex 2.8891915187620314 8.093095478334183 4.589448860340726
  endloop
endfacet
facet normal 0.0 0.0 1.0
  outer loop
    vertex 2.856067264745743 9.61982379263974 4.589448860340726
    vertex 2.8891915187620314 8.093095478334183 4.589448860340726
    vertex 3.4957532945374217 9.91580223103475 4.589448860340726
  endloop
endfacet
facet normal 0.0 0.0 1.0
  outer loop
    vertex 3.4957532945374217 9.91580223103475 4.589448860340726
    vertex 2.8891915187620314 8.093095478334183 4.589448860340726
    vertex 3.132602502528766 8.432522734726007 4.589448860340726
  endloop
endfacet
facet normal 0.0 0.0 1.0
  outer loop
    vertex 3.4957532945374217 9.91580223103475 4.589448860340726
    vertex 3.132602502528766 8.432522734726007 4.589448860340726
    vertex 3.455569696532584 8.69738488943534 4.589448860340726
  endloop
endfacet
facet normal 0.0 0.0 1.0
  outer loop
    vertex 3.4957532945374217 9.91580223103475 4.589448860340726
    vertex 3.455569696532584 8.69738488943534 4.589448860340726
    vertex 3.8360834202306493 8.869632024324146 4.589448860340726
  endloop
endfacet
facet normal 0.0 0.0 1.0
  outer loop
    vertex 3.4957532945374217 9.91580223103475 4.589448860340726
    vertex 3.8360834202306493 8.869632024324146 4.589448860340726
    vertex 4.190247408225848 10.03613252130909 4.589448860340726
  endloop
endfacet
facet normal 0.0 0.0 1.0
  outer loop
    vertex 4.190247408225848 10.03613252130909 4.589448860340726
    vertex 3.8360834202306493 8.869632024324146 4.589448860340726
    vertex 4.2482122921815995 8.937525781801602 4.589448860340726
  endloop
endfacet
facet normal 0.0 0.0 1.0
  outer loop
    vertex 4.190247408225848 10.03613252130909 4.589448860340726
    vertex 4.2482122921815995 8.937525781801602 4.589448860340726
    vertex 4.892220979668948 9.97261435303578 4.589448860340726
  endloop
endfacet
facet normal 0.0 0.0 1.0
  outer loop
    vertex 4.892220979668948 9.97261435303578 4.589448860340726
    vertex 4.2482122921815995 8.937525781801602 4.589448860340726
    vertex 4.66387041083714 8.896439314495362 4.589448860340726
  endloop
endfacet
facet normal 0.0 0.0 1.0
  outer loop
    vertex 4.892220979668948 9.97261435303578 4.589448860340726
    vertex 4.66387041083714 8.896439314495362 4.589448860340726
    vertex 5.054731362318416 8.749172597253745 4.589448860340726
  endloop
endfacet
facet normal 0.0 0.0 1.0
  outer loop
    vertex 4.892220979668948 9.97261435303578 4.589448860340726
    vertex 5.054731362318416 8.749172597253745 4.589448860340726
    vertex 5.553835670039061 9.729576384413901 4.589448860340726
  endloop
endfacet
facet normal 0.0 0.0 1.0
  outer loop
    vertex 5.553835670039061 9.729576384413901 4.589448860340726
    vertex 5.054731362318416 8.749172597253745 4.589448860340726
    vertex 5.3941586187102395 8.505761613487008 4.589448860340726
  endloop
endfacet
facet normal 0.0 0.0 1.0
  outer loop
    vertex 5.553835670039061 9.729576384413901 4.589448860340726
    vertex 5.3941586187102395 8.505761613487008 4.589448860340726
    vertex 5.659020773419571 8.18279441948319 4.589448860340726
  endloop
endfacet
facet normal 0.0 0.0 1.0
  outer loop
    vertex 5.553835670039061 9.729576384413901 4.589448860340726
    vertex 5.659020773419571 8.18279441948319 4.589448860340726
    vertex 6.130003531557425 9.3235812513658 4.589448860340726
  endloop
endfacet
facet normal 0.0 0.0 1.0
  outer loop
    vertex 6.130003531557425 9.3235812513658 4.589448860340726
    vertex 5.659020773419571 8.18279441948319 4.589448860340726
    vertex 5.831267908308377 7.802280695785125 4.589448860340726
  endloop
endfacet
facet normal 0.0 0.0 1.0
  outer loop
    vertex 6.130003531557425 9.3235812513658 4.589448860340726
    vertex 5.831267908308377 7.802280695785125 4.589448860340726
    vertex 5.899161665785835 7.390151823834176 4.589448860340726
  endloop
endfacet
facet normal 0.170719659470902 -0.9853196424867107 0.0
  outer loop
    vertex 4.190247408225848 10.03613252130909 7.189448860340721
    vertex 3.4957532945374217 9.91580223103475 4.589448860340726
    vertex 4.190247408225848 10.03613252130909 4.589448860340726
  endloop
endfacet
facet normal 0.170719659470902 -0.9853196424867107 0.0
  outer loop
    vertex 3.4957532945374217 9.91580223103475 4.589448860340726
    vertex 4.190247408225848 10.03613252130909 7.189448860340721
    vertex 3.4957532945374217 9.91580223103475 7.189448860340721
  endloop
endfacet
facet normal 0.41992201712739047 -0.9075601905833375 0.0
  outer loop
    vertex 3.4957532945374217 9.91580223103475 7.189448860340721
    vertex 2.856067264745743 9.61982379263974 4.589448860340726
    vertex 3.4957532945374217 9.91580223103475 4.589448860340726
  endloop
endfacet
facet normal 0.41992201712739047 -0.9075601905833375 0.0
  outer loop
    vertex 2.856067264745743 9.61982379263974 4.589448860340726
    vertex 3.4957532945374217 9.91580223103475 7.189448860340721
    vertex 2.856067264745743 9.61982379263974 7.189448860340721
  endloop
endfacet
facet normal 0.9853196424867096 0.17071965947090842 0.0
  outer loop
    vertex 1.6022315947066854 7.228611524241615 4.589448860340726
    vertex 1.72256188498103 6.5341174105531845 7.189448860340721
    vertex 1.72256188498103 6.5341174105531845 4.589448860340726
  endloop
endfacet
facet normal 0.9853196424867096 0.17071965947090842 0.0
  outer loop
    vertex 1.72256188498103 6.5341174105531845 7.189448860340721
    vertex 1.6022315947066854 7.228611524241615 4.589448860340726
    vertex 1.6022315947066854 7.228611524241615 7.189448860340721
  endloop
endfacet
facet normal 0.9075601905833428 0.4199220171273788 0.0
  outer loop
    vertex 1.72256188498103 6.5341174105531845 4.589448860340726
    vertex 2.018540323376029 5.894431380761511 7.189448860340721
    vertex 2.018540323376029 5.894431380761511 4.589448860340726
  endloop
endfacet
facet normal 0.9075601905833428 0.4199220171273788 0.0
  outer loop
    vertex 2.018540323376029 5.894431380761511 7.189448860340721
    vertex 1.72256188498103 6.5341174105531845 4.589448860340726
    vertex 1.72256188498103 6.5341174105531845 7.189448860340721
  endloop
endfacet
facet normal 0.9386716709767476 -0.3448122592161137 0.0
  outer loop
    vertex 1.9087877316018729 8.59219978605483 4.589448860340726
    vertex 1.6657497629800004 7.930585095684721 7.189448860340721
    vertex 1.6657497629800004 7.930585095684721 4.589448860340726
  endloop
endfacet
facet normal 0.9386716709767476 -0.3448122592161137 0.0
  outer loop
    vertex 1.6657497629800004 7.930585095684721 7.189448860340721
    vertex 1.9087877316018729 8.59219978605483 4.589448860340726
    vertex 1.9087877316018729 8.59219978605483 7.189448860340721
  endloop
endfacet
facet normal 0.7679520115058368 0.6405073832705904 0.0
  outer loop
    vertex 2.018540323376029 5.894431380761511 4.589448860340726
    vertex 2.4699964684425817 5.353146980665742 7.189448860340721
    vertex 2.4699964684425817 5.353146980665742 4.589448860340726
  endloop
endfacet
facet normal 0.7679520115058368 0.6405073832705904 0.0
  outer loop
    vertex 2.4699964684425817 5.353146980665742 7.189448860340721
    vertex 2.018540323376029 5.894431380761511 4.589448860340726
    vertex 2.018540323376029 5.894431380761511 7.189448860340721
  endloop
endfacet
facet normal 0.34481225921612124 0.938671670976745 0.0
  outer loop
    vertex 3.0461643299609458 4.947151847617647 7.189448860340721
    vertex 3.7077790203310594 4.704113878995767 4.589448860340726
    vertex 3.0461643299609458 4.947151847617647 4.589448860340726
  endloop
endfacet
facet normal 0.34481225921612124 0.938671670976745 0.0
  outer loop
    vertex 3.7077790203310594 4.704113878995767 4.589448860340726
    vertex 3.0461643299609458 4.947151847617647 7.189448860340721
    vertex 3.7077790203310594 4.704113878995767 7.189448860340721
  endloop
endfacet
facet normal 0.09011696085094577 0.995931189072312 0.0
  outer loop
    vertex 3.7077790203310594 4.704113878995767 7.189448860340721
    vertex 4.40975259177416 4.640595710722454 4.589448860340726
    vertex 3.7077790203310594 4.704113878995767 4.589448860340726
  endloop
endfacet
facet normal 0.09011696085094577 0.995931189072312 0.0
  outer loop
    vertex 4.40975259177416 4.640595710722454 4.589448860340726
    vertex 3.7077790203310594 4.704113878995767 7.189448860340721
    vertex 4.40975259177416 4.640595710722454 7.189448860340721
  endloop
endfacet
facet normal 0.6405073832705861 -0.7679520115058406 0.0
  outer loop
    vertex 2.856067264745743 9.61982379263974 7.189448860340721
    vertex 2.3147828646499744 9.168367647573193 4.589448860340726
    vertex 2.856067264745743 9.61982379263974 4.589448860340726
  endloop
endfacet
facet normal 0.6405073832705861 -0.7679520115058406 0.0
  outer loop
    vertex 2.3147828646499744 9.168367647573193 4.589448860340726
    vertex 2.856067264745743 9.61982379263974 7.189448860340721
    vertex 2.3147828646499744 9.168367647573193 7.189448860340721
  endloop
endfacet
facet normal 0.5760091719449217 0.817443229732393 0.0
  outer loop
    vertex 2.4699964684425817 5.353146980665742 7.189448860340721
    vertex 3.0461643299609458 4.947151847617647 4.589448860340726
    vertex 2.4699964684425817 5.353146980665742 4.589448860340726
  endloop
endfacet
facet normal 0.5760091719449217 0.817443229732393 0.0
  outer loop
    vertex 3.0461643299609458 4.947151847617647 4.589448860340726
    vertex 2.4699964684425817 5.353146980665742 7.189448860340721
    vertex 3.0461643299609458 4.947151847617647 7.189448860340721
  endloop
endfacet
facet normal 0.9959311890723119 -0.09011696085094742 0.0
  outer loop
    vertex 1.6657497629800004 7.930585095684721 4.589448860340726
    vertex 1.6022315947066854 7.228611524241615 7.189448860340721
    vertex 1.6022315947066854 7.228611524241615 4.589448860340726
  endloop
endfacet
facet normal 0.9959311890723119 -0.09011696085094742 0.0
  outer loop
    vertex 1.6022315947066854 7.228611524241615 7.189448860340721
    vertex 1.6657497629800004 7.930585095684721 4.589448860340726
    vertex 1.6657497629800004 7.930585095684721 7.189448860340721
  endloop
endfacet
facet normal 0.8174432297323888 -0.5760091719449276 0.0
  outer loop
    vertex 2.3147828646499744 9.168367647573193 4.589448860340726
    vertex 1.9087877316018729 8.59219978605483 7.189448860340721
    vertex 1.9087877316018729 8.59219978605483 4.589448860340726
  endloop
endfacet
facet normal 0.8174432297323888 -0.5760091719449276 0.0
  outer loop
    vertex 1.9087877316018729 8.59219978605483 7.189448860340721
    vertex 2.3147828646499744 9.168367647573193 4.589448860340726
    vertex 2.3147828646499744 9.168367647573193 7.189448860340721
  endloop
endfacet
facet normal 0.0 0.9737408651442702 0.22765923558706835
  outer loop
    vertex 0.0 12.336326960372768 7.189448860340721
    vertex 8.600000000000007 14.019676766159174 -0.010551139659277816
    vertex 0.0 14.019676766159174 -0.010551139659277816
  endloop
endfacet
facet normal 0.0 0.9737408651442702 0.22765923558706835
  outer loop
    vertex 8.600000000000007 14.019676766159174 -0.010551139659277816
    vertex 0.0 12.336326960372768 7.189448860340721
    vertex 8.600000000000007 12.336326960372768 7.189448860340721
  endloop
endfacet
facet normal 0.0 0.0 -1.0
  outer loop
    vertex 0.0 14.019676766159174 -0.010551139659277816
    vertex 2.741924801520413 7.702234526852907 -0.010551139659277464
    vertex 0.0 0.0 -0.010551139659277816
  endloop
endfacet
facet normal 0.0 0.0 -1.0
  outer loop
    vertex 2.741924801520413 7.702234526852907 -0.010551139659277464
    vertex 0.0 14.019676766159174 -0.010551139659277816
    vertex 2.8891915187620314 8.093095478334183 -0.010551139659277464
  endloop
endfacet
facet normal 0.0 0.0 -1.0
  outer loop
    vertex 2.8891915187620314 8.093095478334183 -0.010551139659277464
    vertex 0.0 14.019676766159174 -0.010551139659277816
    vertex 3.132602502528766 8.432522734726007 -0.010551139659277464
  endloop
endfacet
facet normal 0.0 0.0 -1.0
  outer loop
    vertex 3.132602502528766 8.432522734726007 -0.010551139659277464
    vertex 0.0 14.019676766159174 -0.010551139659277816
    vertex 8.600000000000007 14.019676766159174 -0.010551139659277816
  endloop
endfacet
facet normal 0.0 0.0 -1.0
  outer loop
    vertex 0.0 0.0 -0.010551139659277816
    vertex 2.741924801520413 7.702234526852907 -0.010551139659277464
    vertex 2.7008383342141724 7.286576408197367 -0.010551139659277464
  endloop
endfacet
facet normal 0.0 0.0 -1.0
  outer loop
    vertex 3.132602502528766 8.432522734726007 -0.010551139659277464
    vertex 8.600000000000007 14.019676766159174 -0.010551139659277816
    vertex 3.455569696532584 8.69738488943534 -0.010551139659277464
  endloop
endfacet
facet normal 0.0 0.0 -1.0
  outer loop
    vertex 3.455569696532584 8.69738488943534 -0.010551139659277464
    vertex 8.600000000000007 14.019676766159174 -0.010551139659277816
    vertex 3.8360834202306493 8.869632024324146 -0.010551139659277464
  endloop
endfacet
facet normal 0.0 0.0 -1.0
  outer loop
    vertex 3.8360834202306493 8.869632024324146 -0.010551139659277464
    vertex 8.600000000000007 14.019676766159174 -0.010551139659277816
    vertex 4.2482122921815995 8.937525781801602 -0.010551139659277464
  endloop
endfacet
facet normal 0.0 0.0 -1.0
  outer loop
    vertex 4.2482122921815995 8.937525781801602 -0.010551139659277464
    vertex 8.600000000000007 14.019676766159174 -0.010551139659277816
    vertex 4.66387041083714 8.896439314495362 -0.010551139659277464
  endloop
endfacet
facet normal 0.0 0.0 -1.0
  outer loop
    vertex 4.66387041083714 8.896439314495362 -0.010551139659277464
    vertex 8.600000000000007 14.019676766159174 -0.010551139659277816
    vertex 5.054731362318416 8.749172597253745 -0.010551139659277464
  endloop
endfacet
facet normal 0.0 0.0 -1.0
  outer loop
    vertex 5.054731362318416 8.749172597253745 -0.010551139659277464
    vertex 8.600000000000007 14.019676766159174 -0.010551139659277816
    vertex 5.3941586187102395 8.505761613487008 -0.010551139659277464
  endloop
endfacet
facet normal 0.0 0.0 -1.0
  outer loop
    vertex 5.3941586187102395 8.505761613487008 -0.010551139659277464
    vertex 8.600000000000007 14.019676766159174 -0.010551139659277816
    vertex 5.659020773419571 8.18279441948319 -0.010551139659277464
  endloop
endfacet
facet normal 0.0 0.0 -1.0
  outer loop
    vertex 5.659020773419571 8.18279441948319 -0.010551139659277464
    vertex 8.600000000000007 14.019676766159174 -0.010551139659277816
    vertex 5.831267908308377 7.802280695785125 -0.010551139659277464
  endloop
endfacet
facet normal 0.0 0.0 -1.0
  outer loop
    vertex 5.831267908308377 7.802280695785125 -0.010551139659277464
    vertex 8.600000000000007 14.019676766159174 -0.010551139659277816
    vertex 5.899161665785835 7.390151823834176 -0.010551139659277464
  endloop
endfacet
facet normal 0.0 0.0 -1.0
  outer loop
    vertex 0.0 0.0 -0.010551139659277816
    vertex 3.205841381289768 6.170966618544534 -0.010551139659277464
    vertex 8.600000000000007 0.0 -0.010551139659277816
  endloop
endfacet
facet normal 0.0 0.0 -1.0
  outer loop
    vertex 3.205841381289768 6.170966618544534 -0.010551139659277464
    vertex 0.0 0.0 -0.010551139659277816
    vertex 2.9409792265804358 6.4939338125483514 -0.010551139659277464
  endloop
endfacet
facet normal 0.0 0.0 -1.0
  outer loop
    vertex 2.9409792265804358 6.4939338125483514 -0.010551139659277464
    vertex 0.0 0.0 -0.010551139659277816
    vertex 2.768732091691629 6.874447536246418 -0.010551139659277464
  endloop
endfacet
facet normal 0.0 0.0 -1.0
  outer loop
    vertex 2.768732091691629 6.874447536246418 -0.010551139659277464
    vertex 0.0 0.0 -0.010551139659277816
    vertex 2.7008383342141724 7.286576408197367 -0.010551139659277464
  endloop
endfacet
facet normal 0.0 0.0 -1.0
  outer loop
    vertex 8.600000000000007 0.0 -0.010551139659277816
    vertex 3.205841381289768 6.170966618544534 -0.010551139659277464
    vertex 3.545268637681591 5.9275556347778 -0.010551139659277464
  endloop
endfacet
facet normal 0.0 0.0 -1.0
  outer loop
    vertex 8.600000000000007 0.0 -0.010551139659277816
    vertex 3.545268637681591 5.9275556347778 -0.010551139659277464
    vertex 3.9361295891628676 5.780288917536182 -0.010551139659277464
  endloop
endfacet
facet normal 0.0 0.0 -1.0
  outer loop
    vertex 8.600000000000007 0.0 -0.010551139659277816
    vertex 3.9361295891628676 5.780288917536182 -0.010551139659277464
    vertex 4.351787707818407 5.73920245022994 -0.010551139659277464
  endloop
endfacet
facet normal 0.0 0.0 -1.0
  outer loop
    vertex 8.600000000000007 0.0 -0.010551139659277816
    vertex 4.351787707818407 5.73920245022994 -0.010551139659277464
    vertex 4.763916579769358 5.8070962077073975 -0.010551139659277464
  endloop
endfacet
facet normal 0.0 0.0 -1.0
  outer loop
    vertex 8.600000000000007 0.0 -0.010551139659277816
    vertex 4.763916579769358 5.8070962077073975 -0.010551139659277464
    vertex 5.1444303034674235 5.979343342596204 -0.010551139659277464
  endloop
endfacet
facet normal 0.0 0.0 -1.0
  outer loop
    vertex 8.600000000000007 0.0 -0.010551139659277816
    vertex 5.1444303034674235 5.979343342596204 -0.010551139659277464
    vertex 5.467397497471241 6.244205497305536 -0.010551139659277464
  endloop
endfacet
facet normal 0.0 0.0 -1.0
  outer loop
    vertex 8.600000000000007 0.0 -0.010551139659277816
    vertex 5.467397497471241 6.244205497305536 -0.010551139659277464
    vertex 5.710808481237975 6.583632753697359 -0.010551139659277464
  endloop
endfacet
facet normal 0.0 0.0 -1.0
  outer loop
    vertex 8.600000000000007 0.0 -0.010551139659277816
    vertex 5.710808481237975 6.583632753697359 -0.010551139659277464
    vertex 5.858075198479593 6.974493705178635 -0.010551139659277464
  endloop
endfacet
facet normal 0.0 0.0 -1.0
  outer loop
    vertex 8.600000000000007 0.0 -0.010551139659277816
    vertex 5.858075198479593 6.974493705178635 -0.010551139659277464
    vertex 5.899161665785835 7.390151823834176 -0.010551139659277464
  endloop
endfacet
facet normal 0.0 0.0 -1.0
  outer loop
    vertex 8.600000000000007 0.0 -0.010551139659277816
    vertex 5.899161665785835 7.390151823834176 -0.010551139659277464
    vertex 8.600000000000007 14.019676766159174 -0.010551139659277816
  endloop
endfacet
facet normal 0.0 0.0 1.0
  outer loop
    vertex 8.600000000000007 4.640595710722454 7.189448860340721
    vertex 5.104246705462585 4.760926000996795 7.189448860340721
    vertex 4.40975259177416 4.640595710722454 7.189448860340721
  endloop
endfacet
facet normal 0.0 0.0 1.0
  outer loop
    vertex 5.104246705462585 4.760926000996795 7.189448860340721
    vertex 8.600000000000007 4.640595710722454 7.189448860340721
    vertex 5.743932735254264 5.056904439391802 7.189448860340721
  endloop
endfacet
facet normal 0.0 0.0 1.0
  outer loop
    vertex 5.743932735254264 5.056904439391802 7.189448860340721
    vertex 8.600000000000007 4.640595710722454 7.189448860340721
    vertex 6.285217135350033 5.5083605844583525 7.189448860340721
  endloop
endfacet
facet normal 0.0 0.0 1.0
  outer loop
    vertex 6.285217135350033 5.5083605844583525 7.189448860340721
    vertex 8.600000000000007 4.640595710722454 7.189448860340721
    vertex 6.691212268398134 6.084528445976719 7.189448860340721
  endloop
endfacet
facet normal 0.0 0.0 1.0
  outer loop
    vertex 6.691212268398134 6.084528445976719 7.189448860340721
    vertex 8.600000000000007 4.640595710722454 7.189448860340721
    vertex 6.934250237020007 6.746143136346827 7.189448860340721
  endloop
endfacet
facet normal 0.0 0.0 1.0
  outer loop
    vertex 6.934250237020007 6.746143136346827 7.189448860340721
    vertex 8.600000000000007 4.640595710722454 7.189448860340721
    vertex 6.997768405293321 7.448116707789927 7.189448860340721
  endloop
endfacet
facet normal 0.0 0.0 1.0
  outer loop
    vertex 0.0 12.336326960372768 7.189448860340721
    vertex 2.856067264745743 9.61982379263974 7.189448860340721
    vertex 8.600000000000007 12.336326960372768 7.189448860340721
  endloop
endfacet
facet normal 0.0 0.0 1.0
  outer loop
    vertex 2.856067264745743 9.61982379263974 7.189448860340721
    vertex 0.0 12.336326960372768 7.189448860340721
    vertex 2.3147828646499744 9.168367647573193 7.189448860340721
  endloop
endfacet
facet normal 0.0 0.0 1.0
  outer loop
    vertex 2.3147828646499744 9.168367647573193 7.189448860340721
    vertex 0.0 12.336326960372768 7.189448860340721
    vertex 1.9087877316018729 8.59219978605483 7.189448860340721
  endloop
endfacet
facet normal 0.0 0.0 1.0
  outer loop
    vertex 1.9087877316018729 8.59219978605483 7.189448860340721
    vertex 0.0 12.336326960372768 7.189448860340721
    vertex 1.6657497629800004 7.930585095684721 7.189448860340721
  endloop
endfacet
facet normal 0.0 0.0 1.0
  outer loop
    vertex 1.6657497629800004 7.930585095684721 7.189448860340721
    vertex 0.0 12.336326960372768 7.189448860340721
    vertex 1.6022315947066854 7.228611524241615 7.189448860340721
  endloop
endfacet
facet normal 0.0 0.0 1.0
  outer loop
    vertex 8.600000000000007 12.336326960372768 7.189448860340721
    vertex 2.856067264745743 9.61982379263974 7.189448860340721
    vertex 3.4957532945374217 9.91580223103475 7.189448860340721
  endloop
endfacet
facet normal 0.0 0.0 1.0
  outer loop
    vertex 8.600000000000007 12.336326960372768 7.189448860340721
    vertex 3.4957532945374217 9.91580223103475 7.189448860340721
    vertex 4.190247408225848 10.03613252130909 7.189448860340721
  endloop
endfacet
facet normal 0.0 0.0 1.0
  outer loop
    vertex 8.600000000000007 12.336326960372768 7.189448860340721
    vertex 4.190247408225848 10.03613252130909 7.189448860340721
    vertex 4.892220979668948 9.97261435303578 7.189448860340721
  endloop
endfacet
facet normal 0.0 0.0 1.0
  outer loop
    vertex 8.600000000000007 12.336326960372768 7.189448860340721
    vertex 4.892220979668948 9.97261435303578 7.189448860340721
    vertex 5.553835670039061 9.729576384413901 7.189448860340721
  endloop
endfacet
facet normal 0.0 0.0 1.0
  outer loop
    vertex 8.600000000000007 12.336326960372768 7.189448860340721
    vertex 5.553835670039061 9.729576384413901 7.189448860340721
    vertex 6.130003531557425 9.3235812513658 7.189448860340721
  endloop
endfacet
facet normal 0.0 0.0 1.0
  outer loop
    vertex 8.600000000000007 12.336326960372768 7.189448860340721
    vertex 6.130003531557425 9.3235812513658 7.189448860340721
    vertex 6.581459676623978 8.782296851270038 7.189448860340721
  endloop
endfacet
facet normal 0.0 0.0 1.0
  outer loop
    vertex 8.600000000000007 12.336326960372768 7.189448860340721
    vertex 6.581459676623978 8.782296851270038 7.189448860340721
    vertex 6.877438115018976 8.142610821478359 7.189448860340721
  endloop
endfacet
facet normal 0.0 0.0 1.0
  outer loop
    vertex 8.600000000000007 12.336326960372768 7.189448860340721
    vertex 6.877438115018976 8.142610821478359 7.189448860340721
    vertex 6.997768405293321 7.448116707789927 7.189448860340721
  endloop
endfacet
facet normal 0.0 0.0 1.0
  outer loop
    vertex 8.600000000000007 12.336326960372768 7.189448860340721
    vertex 6.997768405293321 7.448116707789927 7.189448860340721
    vertex 8.600000000000007 4.640595710722454 7.189448860340721
  endloop
endfacet
facet normal 0.0 0.0 1.0
  outer loop
    vertex 0.0 4.640595710722454 7.189448860340721
    vertex 1.72256188498103 6.5341174105531845 7.189448860340721
    vertex 0.0 12.336326960372768 7.189448860340721
  endloop
endfacet
facet normal 0.0 0.0 1.0
  outer loop
    vertex 1.72256188498103 6.5341174105531845 7.189448860340721
    vertex 0.0 4.640595710722454 7.189448860340721
    vertex 2.018540323376029 5.894431380761511 7.189448860340721
  endloop
endfacet
facet normal 0.0 0.0 1.0
  outer loop
    vertex 2.018540323376029 5.894431380761511 7.189448860340721
    vertex 0.0 4.640595710722454 7.189448860340721
    vertex 2.4699964684425817 5.353146980665742 7.189448860340721
  endloop
endfacet
facet normal 0.0 0.0 1.0
  outer loop
    vertex 2.4699964684425817 5.353146980665742 7.189448860340721
    vertex 0.0 4.640595710722454 7.189448860340721
    vertex 3.0461643299609458 4.947151847617647 7.189448860340721
  endloop
endfacet
facet normal 0.0 0.0 1.0
  outer loop
    vertex 3.0461643299609458 4.947151847617647 7.189448860340721
    vertex 0.0 4.640595710722454 7.189448860340721
    vertex 3.7077790203310594 4.704113878995767 7.189448860340721
  endloop
endfacet
facet normal 0.0 0.0 1.0
  outer loop
    vertex 3.7077790203310594 4.704113878995767 7.189448860340721
    vertex 0.0 4.640595710722454 7.189448860340721
    vertex 4.40975259177416 4.640595710722454 7.189448860340721
  endloop
endfacet
facet normal 0.0 0.0 1.0
  outer loop
    vertex 0.0 12.336326960372768 7.189448860340721
    vertex 1.72256188498103 6.5341174105531845 7.189448860340721
    vertex 1.6022315947066854 7.228611524241615 7.189448860340721
  endloop
endfacet
facet normal -0.9386716709767473 0.344812259216115 0.0
  outer loop
    vertex 6.934250237020007 6.746143136346827 7.189448860340721
    vertex 6.691212268398134 6.084528445976719 4.589448860340726
    vertex 6.691212268398134 6.084528445976719 7.189448860340721
  endloop
endfacet
facet normal -0.9386716709767473 0.344812259216115 0.0
  outer loop
    vertex 6.691212268398134 6.084528445976719 4.589448860340726
    vertex 6.934250237020007 6.746143136346827 7.189448860340721
    vertex 6.934250237020007 6.746143136346827 4.589448860340726
  endloop
endfacet
facet normal -0.6405073832705861 0.7679520115058406 0.0
  outer loop
    vertex 5.743932735254264 5.056904439391802 7.189448860340721
    vertex 6.285217135350033 5.5083605844583525 4.589448860340726
    vertex 5.743932735254264 5.056904439391802 4.589448860340726
  endloop
endfacet
facet normal -0.6405073832705861 0.7679520115058406 0.0
  outer loop
    vertex 6.285217135350033 5.5083605844583525 4.589448860340726
    vertex 5.743932735254264 5.056904439391802 7.189448860340721
    vertex 6.285217135350033 5.5083605844583525 7.189448860340721
  endloop
endfacet
facet normal -0.17071965947090595 0.9853196424867101 0.0
  outer loop
    vertex 4.40975259177416 4.640595710722454 7.189448860340721
    vertex 5.104246705462585 4.760926000996795 4.589448860340726
    vertex 4.40975259177416 4.640595710722454 4.589448860340726
  endloop
endfacet
facet normal -0.17071965947090595 0.9853196424867101 0.0
  outer loop
    vertex 5.104246705462585 4.760926000996795 4.589448860340726
    vertex 4.40975259177416 4.640595710722454 7.189448860340721
    vertex 5.104246705462585 4.760926000996795 7.189448860340721
  endloop
endfacet
facet normal -0.41992201712738714 0.9075601905833389 0.0
  outer loop
    vertex 5.104246705462585 4.760926000996795 7.189448860340721
    vertex 5.743932735254264 5.056904439391802 4.589448860340726
    vertex 5.104246705462585 4.760926000996795 4.589448860340726
  endloop
endfacet
facet normal -0.41992201712738714 0.9075601905833389 0.0
  outer loop
    vertex 5.743932735254264 5.056904439391802 4.589448860340726
    vertex 5.104246705462585 4.760926000996795 7.189448860340721
    vertex 5.743932735254264 5.056904439391802 7.189448860340721
  endloop
endfacet
facet normal -0.8174432297323908 0.5760091719449248 0.0
  outer loop
    vertex 6.691212268398134 6.084528445976719 7.189448860340721
    vertex 6.285217135350033 5.5083605844583525 4.589448860340726
    vertex 6.285217135350033 5.5083605844583525 7.189448860340721
  endloop
endfacet
facet normal -0.8174432297323908 0.5760091719449248 0.0
  outer loop
    vertex 6.285217135350033 5.5083605844583525 4.589448860340726
    vertex 6.691212268398134 6.084528445976719 7.189448860340721
    vertex 6.691212268398134 6.084528445976719 4.589448860340726
  endloop
endfacet
facet normal -0.9959311890723119 0.09011696085094742 0.0
  outer loop
    vertex 6.997768405293321 7.448116707789927 7.189448860340721
    vertex 6.934250237020007 6.746143136346827 4.589448860340726
    vertex 6.934250237020007 6.746143136346827 7.189448860340721
  endloop
endfacet
facet normal -0.9959311890723119 0.09011696085094742 0.0
  outer loop
    vertex 6.934250237020007 6.746143136346827 4.589448860340726
    vertex 6.997768405293321 7.448116707789927 7.189448860340721
    vertex 6.997768405293321 7.448116707789927 4.589448860340726
  endloop
endfacet
facet normal -0.9853196424867096 -0.17071965947090842 -0.0
  outer loop
    vertex 6.877438115018976 8.142610821478359 7.189448860340721
    vertex 6.997768405293321 7.448116707789927 4.589448860340726
    vertex 6.997768405293321 7.448116707789927 7.189448860340721
  endloop
endfacet
facet normal -0.9853196424867096 -0.17071965947090842 -0.0
  outer loop
    vertex 6.997768405293321 7.448116707789927 4.589448860340726
    vertex 6.877438115018976 8.142610821478359 7.189448860340721
    vertex 6.877438115018976 8.142610821478359 4.589448860340726
  endloop
endfacet
facet normal -0.9075601905833428 -0.4199220171273788 -0.0
  outer loop
    vertex 6.581459676623978 8.782296851270038 7.189448860340721
    vertex 6.877438115018976 8.142610821478359 4.589448860340726
    vertex 6.877438115018976 8.142610821478359 7.189448860340721
  endloop
endfacet
facet normal -0.9075601905833428 -0.4199220171273788 -0.0
  outer loop
    vertex 6.877438115018976 8.142610821478359 4.589448860340726
    vertex 6.581459676623978 8.782296851270038 7.189448860340721
    vertex 6.581459676623978 8.782296851270038 4.589448860340726
  endloop
endfacet
facet normal -0.5760091719449231 -0.8174432297323919 -0.0
  outer loop
    vertex 6.130003531557425 9.3235812513658 7.189448860340721
    vertex 5.553835670039061 9.729576384413901 4.589448860340726
    vertex 6.130003531557425 9.3235812513658 4.589448860340726
  endloop
endfacet
facet normal -0.5760091719449231 -0.8174432297323919 -0.0
  outer loop
    vertex 5.553835670039061 9.729576384413901 4.589448860340726
    vertex 6.130003531557425 9.3235812513658 7.189448860340721
    vertex 5.553835670039061 9.729576384413901 7.189448860340721
  endloop
endfacet
facet normal -0.7679520115058368 -0.6405073832705904 -0.0
  outer loop
    vertex 6.130003531557425 9.3235812513658 7.189448860340721
    vertex 6.581459676623978 8.782296851270038 4.589448860340726
    vertex 6.581459676623978 8.782296851270038 7.189448860340721
  endloop
endfacet
facet normal -0.7679520115058368 -0.6405073832705904 -0.0
  outer loop
    vertex 6.581459676623978 8.782296851270038 4.589448860340726
    vertex 6.130003531557425 9.3235812513658 7.189448860340721
    vertex 6.130003531557425 9.3235812513658 4.589448860340726
  endloop
endfacet
facet normal -0.09011696085094381 -0.9959311890723123 -0.0
  outer loop
    vertex 4.892220979668948 9.97261435303578 7.189448860340721
    vertex 4.190247408225848 10.03613252130909 4.589448860340726
    vertex 4.892220979668948 9.97261435303578 4.589448860340726
  endloop
endfacet
facet normal -0.09011696085094381 -0.9959311890723123 -0.0
  outer loop
    vertex 4.190247408225848 10.03613252130909 4.589448860340726
    vertex 4.892220979668948 9.97261435303578 7.189448860340721
    vertex 4.190247408225848 10.03613252130909 7.189448860340721
  endloop
endfacet
facet normal -0.34481225921611947 -0.9386716709767458 -0.0
  outer loop
    vertex 5.553835670039061 9.729576384413901 7.189448860340721
    vertex 4.892220979668948 9.97261435303578 4.589448860340726
    vertex 5.553835670039061 9.729576384413901 4.589448860340726
  endloop
endfacet
facet normal -0.34481225921611947 -0.9386716709767458 -0.0
  outer loop
    vertex 4.892220979668948 9.97261435303578 4.589448860340726
    vertex 5.553835670039061 9.729576384413901 7.189448860340721
    vertex 4.892220979668948 9.97261435303578 7.189448860340721
  endloop
endfacet
facet normal 0.0 1.0 0.0
  outer loop
    vertex 2.1561916531867933 4.640595710722454 9.88944886034072
    vertex 4.40975259177416 4.640595710722454 7.189448860340721
    vertex 0.0 4.640595710722454 7.189448860340721
  endloop
endfacet
facet normal 0.0 1.0 0.0
  outer loop
    vertex 4.40975259177416 4.640595710722454 7.189448860340721
    vertex 2.1561916531867933 4.640595710722454 9.88944886034072
    vertex 8.600000000000007 4.640595710722454 7.189448860340721
  endloop
endfacet
facet normal 0.0 1.0 0.0
  outer loop
    vertex 8.600000000000007 4.640595710722454 7.189448860340721
    vertex 2.1561916531867933 4.640595710722454 9.88944886034072
    vertex 8.600000000000007 4.640595710722454 18.28944886034071
  endloop
endfacet
facet normal 0.0 1.0 0.0
  outer loop
    vertex 8.600000000000007 4.640595710722454 18.28944886034071
    vertex 2.1561916531867933 4.640595710722454 9.88944886034072
    vertex 2.1561916531867933 4.640595710722454 18.28944886034071
  endloop
endfacet
facet normal -1.0 0.0 0.0
  outer loop
    vertex 2.1561916531867933 4.640595710722454 18.28944886034071
    vertex 2.1561916531867933 3.1516477821132254 9.88944886034072
    vertex 2.1561916531867933 3.1516477821132254 18.28944886034071
  endloop
endfacet
facet normal -1.0 0.0 0.0
  outer loop
    vertex 2.1561916531867933 3.1516477821132254 9.88944886034072
    vertex 2.1561916531867933 4.640595710722454 18.28944886034071
    vertex 2.1561916531867933 4.640595710722454 9.88944886034072
  endloop
endfacet
facet normal 0.0 0.0 1.0
  outer loop
    vertex 8.600000000000007 3.1516477821132254 18.28944886034071
    vertex 2.1561916531867933 4.640595710722454 18.28944886034071
    vertex 2.1561916531867933 3.1516477821132254 18.28944886034071
  endloop
endfacet
facet normal 0.0 0.0 1.0
  outer loop
    vertex 2.1561916531867933 4.640595710722454 18.28944886034071
    vertex 8.600000000000007 3.1516477821132254 18.28944886034071
    vertex 8.600000000000007 4.640595710722454 18.28944886034071
  endloop
endfacet
facet normal 0.4123864240366844 -0.9110090215086983 0.0
  outer loop
    vertex 3.8360834202306493 8.869632024324146 4.589448860340726
    vertex 3.455569696532584 8.69738488943534 -0.010551139659277464
    vertex 3.8360834202306493 8.869632024324146 -0.010551139659277464
  endloop
endfacet
facet normal 0.4123864240366844 -0.9110090215086983 0.0
  outer loop
    vertex 3.455569696532584 8.69738488943534 -0.010551139659277464
    vertex 3.8360834202306493 8.869632024324146 4.589448860340726
    vertex 3.455569696532584 8.69738488943534 4.589448860340726
  endloop
endfacet
facet normal 0.6341211824146902 -0.7732336813751685 0.0
  outer loop
    vertex 3.455569696532584 8.69738488943534 4.589448860340726
    vertex 3.132602502528766 8.432522734726007 -0.010551139659277464
    vertex 3.455569696532584 8.69738488943534 -0.010551139659277464
  endloop
endfacet
facet normal 0.6341211824146902 -0.7732336813751685 0.0
  outer loop
    vertex 3.132602502528766 8.432522734726007 -0.010551139659277464
    vertex 3.455569696532584 8.69738488943534 4.589448860340726
    vertex 3.132602502528766 8.432522734726007 4.589448860340726
  endloop
endfacet
facet normal 0.8126416301459396 -0.5827637436849946 0.0
  outer loop
    vertex 3.132602502528766 8.432522734726007 -0.010551139659277464
    vertex 2.8891915187620314 8.093095478334183 4.589448860340726
    vertex 2.8891915187620314 8.093095478334183 -0.010551139659277464
  endloop
endfacet
facet normal 0.8126416301459396 -0.5827637436849946 0.0
  outer loop
    vertex 2.8891915187620314 8.093095478334183 4.589448860340726
    vertex 3.132602502528766 8.432522734726007 -0.010551139659277464
    vertex 3.132602502528766 8.432522734726007 4.589448860340726
  endloop
endfacet
facet normal 0.9357818937365324 -0.35257941992531155 0.0
  outer loop
    vertex 2.8891915187620314 8.093095478334183 -0.010551139659277464
    vertex 2.741924801520413 7.702234526852907 4.589448860340726
    vertex 2.741924801520413 7.702234526852907 -0.010551139659277464
  endloop
endfacet
facet normal 0.9357818937365324 -0.35257941992531155 0.0
  outer loop
    vertex 2.741924801520413 7.702234526852907 4.589448860340726
    vertex 2.8891915187620314 8.093095478334183 -0.010551139659277464
    vertex 2.8891915187620314 8.093095478334183 4.589448860340726
  endloop
endfacet
facet normal 0.9951501677216792 -0.09836739136275777 0.0
  outer loop
    vertex 2.741924801520413 7.702234526852907 -0.010551139659277464
    vertex 2.7008383342141724 7.286576408197367 4.589448860340726
    vertex 2.7008383342141724 7.286576408197367 -0.010551139659277464
  endloop
endfacet
facet normal 0.9951501677216792 -0.09836739136275777 0.0
  outer loop
    vertex 2.7008383342141724 7.286576408197367 4.589448860340726
    vertex 2.741924801520413 7.702234526852907 -0.010551139659277464
    vertex 2.741924801520413 7.702234526852907 4.589448860340726
  endloop
endfacet
facet normal 0.986700602340003 0.1625482123613651 0.0
  outer loop
    vertex 2.7008383342141724 7.286576408197367 -0.010551139659277464
    vertex 2.768732091691629 6.874447536246418 4.589448860340726
    vertex 2.768732091691629 6.874447536246418 -0.010551139659277464
  endloop
endfacet
facet normal 0.986700602340003 0.1625482123613651 0.0
  outer loop
    vertex 2.768732091691629 6.874447536246418 4.589448860340726
    vertex 2.7008383342141724 7.286576408197367 -0.010551139659277464
    vertex 2.7008383342141724 7.286576408197367 4.589448860340726
  endloop
endfacet
facet normal 0.9110090215086986 0.41238642403668385 0.0
  outer loop
    vertex 2.768732091691629 6.874447536246418 -0.010551139659277464
    vertex 2.9409792265804358 6.4939338125483514 4.589448860340726
    vertex 2.9409792265804358 6.4939338125483514 -0.010551139659277464
  endloop
endfacet
facet normal 0.9110090215086986 0.41238642403668385 0.0
  outer loop
    vertex 2.9409792265804358 6.4939338125483514 4.589448860340726
    vertex 2.768732091691629 6.874447536246418 -0.010551139659277464
    vertex 2.768732091691629 6.874447536246418 4.589448860340726
  endloop
endfacet
facet normal 0.7732336813751669 0.634121182414692 0.0
  outer loop
    vertex 2.9409792265804358 6.4939338125483514 -0.010551139659277464
    vertex 3.205841381289768 6.170966618544534 4.589448860340726
    vertex 3.205841381289768 6.170966618544534 -0.010551139659277464
  endloop
endfacet
facet normal 0.7732336813751669 0.634121182414692 0.0
  outer loop
    vertex 3.205841381289768 6.170966618544534 4.589448860340726
    vertex 2.9409792265804358 6.4939338125483514 -0.010551139659277464
    vertex 2.9409792265804358 6.4939338125483514 4.589448860340726
  endloop
endfacet
facet normal 0.5827637436849944 0.8126416301459398 0.0
  outer loop
    vertex 3.205841381289768 6.170966618544534 4.589448860340726
    vertex 3.545268637681591 5.9275556347778 -0.010551139659277464
    vertex 3.205841381289768 6.170966618544534 -0.010551139659277464
  endloop
endfacet
facet normal 0.5827637436849944 0.8126416301459398 0.0
  outer loop
    vertex 3.545268637681591 5.9275556347778 -0.010551139659277464
    vertex 3.205841381289768 6.170966618544534 4.589448860340726
    vertex 3.545268637681591 5.9275556347778 4.589448860340726
  endloop
endfacet
facet normal 0.3525794199253121 0.9357818937365322 0.0
  outer loop
    vertex 3.545268637681591 5.9275556347778 4.589448860340726
    vertex 3.9361295891628676 5.780288917536182 -0.010551139659277464
    vertex 3.545268637681591 5.9275556347778 -0.010551139659277464
  endloop
endfacet
facet normal 0.3525794199253121 0.9357818937365322 0.0
  outer loop
    vertex 3.9361295891628676 5.780288917536182 -0.010551139659277464
    vertex 3.545268637681591 5.9275556347778 4.589448860340726
    vertex 3.9361295891628676 5.780288917536182 4.589448860340726
  endloop
endfacet
facet normal 0.09836739136275777 0.9951501677216792 0.0
  outer loop
    vertex 3.9361295891628676 5.780288917536182 4.589448860340726
    vertex 4.351787707818407 5.73920245022994 -0.010551139659277464
    vertex 3.9361295891628676 5.780288917536182 -0.010551139659277464
  endloop
endfacet
facet normal 0.09836739136275777 0.9951501677216792 0.0
  outer loop
    vertex 4.351787707818407 5.73920245022994 -0.010551139659277464
    vertex 3.9361295891628676 5.780288917536182 4.589448860340726
    vertex 4.351787707818407 5.73920245022994 4.589448860340726
  endloop
endfacet
facet normal -0.16254821236136538 0.986700602340003 0.0
  outer loop
    vertex 4.351787707818407 5.73920245022994 4.589448860340726
    vertex 4.763916579769358 5.8070962077073975 -0.010551139659277464
    vertex 4.351787707818407 5.73920245022994 -0.010551139659277464
  endloop
endfacet
facet normal -0.16254821236136538 0.986700602340003 0.0
  outer loop
    vertex 4.763916579769358 5.8070962077073975 -0.010551139659277464
    vertex 4.351787707818407 5.73920245022994 4.589448860340726
    vertex 4.763916579769358 5.8070962077073975 4.589448860340726
  endloop
endfacet
facet normal -0.4123864240366844 0.9110090215086983 0.0
  outer loop
    vertex 4.763916579769358 5.8070962077073975 4.589448860340726
    vertex 5.1444303034674235 5.979343342596204 -0.010551139659277464
    vertex 4.763916579769358 5.8070962077073975 -0.010551139659277464
  endloop
endfacet
facet normal -0.4123864240366844 0.9110090215086983 0.0
  outer loop
    vertex 5.1444303034674235 5.979343342596204 -0.010551139659277464
    vertex 4.763916579769358 5.8070962077073975 4.589448860340726
    vertex 5.1444303034674235 5.979343342596204 4.589448860340726
  endloop
endfacet
facet normal -0.634121182414692 0.7732336813751669 0.0
  outer loop
    vertex 5.1444303034674235 5.979343342596204 4.589448860340726
    vertex 5.467397497471241 6.244205497305536 -0.010551139659277464
    vertex 5.1444303034674235 5.979343342596204 -0.010551139659277464
  endloop
endfacet
facet normal -0.634121182414692 0.7732336813751669 0.0
  outer loop
    vertex 5.467397497471241 6.244205497305536 -0.010551139659277464
    vertex 5.1444303034674235 5.979343342596204 4.589448860340726
    vertex 5.467397497471241 6.244205497305536 4.589448860340726
  endloop
endfacet
facet normal -0.8126416301459389 0.5827637436849954 0.0
  outer loop
    vertex 5.710808481237975 6.583632753697359 4.589448860340726
    vertex 5.467397497471241 6.244205497305536 -0.010551139659277464
    vertex 5.467397497471241 6.244205497305536 4.589448860340726
  endloop
endfacet
facet normal -0.8126416301459389 0.5827637436849954 0.0
  outer loop
    vertex 5.467397497471241 6.244205497305536 -0.010551139659277464
    vertex 5.710808481237975 6.583632753697359 4.589448860340726
    vertex 5.710808481237975 6.583632753697359 -0.010551139659277464
  endloop
endfacet
facet normal -0.9357818937365325 0.3525794199253112 0.0
  outer loop
    vertex 5.858075198479593 6.974493705178635 4.589448860340726
    vertex 5.710808481237975 6.583632753697359 -0.010551139659277464
    vertex 5.710808481237975 6.583632753697359 4.589448860340726
  endloop
endfacet
facet normal -0.9357818937365325 0.3525794199253112 0.0
  outer loop
    vertex 5.710808481237975 6.583632753697359 -0.010551139659277464
    vertex 5.858075198479593 6.974493705178635 4.589448860340726
    vertex 5.858075198479593 6.974493705178635 -0.010551139659277464
  endloop
endfacet
facet normal -0.9951501677216791 0.09836739136275913 0.0
  outer loop
    vertex 5.899161665785835 7.390151823834176 4.589448860340726
    vertex 5.858075198479593 6.974493705178635 -0.010551139659277464
    vertex 5.858075198479593 6.974493705178635 4.589448860340726
  endloop
endfacet
facet normal -0.9951501677216791 0.09836739136275913 0.0
  outer loop
    vertex 5.858075198479593 6.974493705178635 -0.010551139659277464
    vertex 5.899161665785835 7.390151823834176 4.589448860340726
    vertex 5.899161665785835 7.390151823834176 -0.010551139659277464
  endloop
endfacet
facet normal -0.9867006023400028 -0.1625482123613659 -0.0
  outer loop
    vertex 5.831267908308377 7.802280695785125 4.589448860340726
    vertex 5.899161665785835 7.390151823834176 -0.010551139659277464
    vertex 5.899161665785835 7.390151823834176 4.589448860340726
  endloop
endfacet
facet normal -0.9867006023400028 -0.1625482123613659 -0.0
  outer loop
    vertex 5.899161665785835 7.390151823834176 -0.010551139659277464
    vertex 5.831267908308377 7.802280695785125 4.589448860340726
    vertex 5.831267908308377 7.802280695785125 -0.010551139659277464
  endloop
endfacet
facet normal -0.9110090215086983 -0.4123864240366844 -0.0
  outer loop
    vertex 5.659020773419571 8.18279441948319 4.589448860340726
    vertex 5.831267908308377 7.802280695785125 -0.010551139659277464
    vertex 5.831267908308377 7.802280695785125 4.589448860340726
  endloop
endfacet
facet normal -0.9110090215086983 -0.4123864240366844 -0.0
  outer loop
    vertex 5.831267908308377 7.802280695785125 -0.010551139659277464
    vertex 5.659020773419571 8.18279441948319 4.589448860340726
    vertex 5.659020773419571 8.18279441948319 -0.010551139659277464
  endloop
endfacet
facet normal -0.7732336813751685 -0.6341211824146902 -0.0
  outer loop
    vertex 5.3941586187102395 8.505761613487008 4.589448860340726
    vertex 5.659020773419571 8.18279441948319 -0.010551139659277464
    vertex 5.659020773419571 8.18279441948319 4.589448860340726
  endloop
endfacet
facet normal -0.7732336813751685 -0.6341211824146902 -0.0
  outer loop
    vertex 5.659020773419571 8.18279441948319 -0.010551139659277464
    vertex 5.3941586187102395 8.505761613487008 4.589448860340726
    vertex 5.3941586187102395 8.505761613487008 -0.010551139659277464
  endloop
endfacet
facet normal -0.5827637436849957 -0.8126416301459387 -0.0
  outer loop
    vertex 5.3941586187102395 8.505761613487008 4.589448860340726
    vertex 5.054731362318416 8.749172597253745 -0.010551139659277464
    vertex 5.3941586187102395 8.505761613487008 -0.010551139659277464
  endloop
endfacet
facet normal -0.5827637436849957 -0.8126416301459387 -0.0
  outer loop
    vertex 5.054731362318416 8.749172597253745 -0.010551139659277464
    vertex 5.3941586187102395 8.505761613487008 4.589448860340726
    vertex 5.054731362318416 8.749172597253745 4.589448860340726
  endloop
endfacet
facet normal -0.3525794199253112 -0.9357818937365325 -0.0
  outer loop
    vertex 5.054731362318416 8.749172597253745 4.589448860340726
    vertex 4.66387041083714 8.896439314495362 -0.010551139659277464
    vertex 5.054731362318416 8.749172597253745 -0.010551139659277464
  endloop
endfacet
facet normal -0.3525794199253112 -0.9357818937365325 -0.0
  outer loop
    vertex 4.66387041083714 8.896439314495362 -0.010551139659277464
    vertex 5.054731362318416 8.749172597253745 4.589448860340726
    vertex 4.66387041083714 8.896439314495362 4.589448860340726
  endloop
endfacet
facet normal -0.09836739136275761 -0.9951501677216793 -0.0
  outer loop
    vertex 4.66387041083714 8.896439314495362 4.589448860340726
    vertex 4.2482122921815995 8.937525781801602 -0.010551139659277464
    vertex 4.66387041083714 8.896439314495362 -0.010551139659277464
  endloop
endfacet
facet normal -0.09836739136275761 -0.9951501677216793 -0.0
  outer loop
    vertex 4.2482122921815995 8.937525781801602 -0.010551139659277464
    vertex 4.66387041083714 8.896439314495362 4.589448860340726
    vertex 4.2482122921815995 8.937525781801602 4.589448860340726
  endloop
endfacet
facet normal 0.16254821236136566 -0.986700602340003 0.0
  outer loop
    vertex 4.2482122921815995 8.937525781801602 4.589448860340726
    vertex 3.8360834202306493 8.869632024324146 -0.010551139659277464
    vertex 4.2482122921815995 8.937525781801602 -0.010551139659277464
  endloop
endfacet
facet normal 0.16254821236136566 -0.986700602340003 0.0
  outer loop
    vertex 3.8360834202306493 8.869632024324146 -0.010551139659277464
    vertex 4.2482122921815995 8.937525781801602 4.589448860340726
    vertex 3.8360834202306493 8.869632024324146 4.589448860340726
  endloop
endfacet
facet normal 1.0 0.0 0.0
  outer loop
    vertex 8.600000000000007 14.019676766159174 -0.010551139659277816
    vertex 8.600000000000007 1.9516477821132276 7.189448860340721
    vertex 8.600000000000007 0.0 -0.010551139659277816
  endloop
endfacet
facet normal 1.0 0.0 0.0
  outer loop
    vertex 8.600000000000007 1.9516477821132276 7.189448860340721
    vertex 8.600000000000007 14.019676766159174 -0.010551139659277816
    vertex 8.600000000000007 4.640595710722454 7.189448860340721
  endloop
endfacet
facet normal 1.0 0.0 0.0
  outer loop
    vertex 8.600000000000007 1.9516477821132276 7.189448860340721
    vertex 8.600000000000007 4.640595710722454 7.189448860340721
    vertex 8.600000000000007 3.1516477821132254 18.28944886034071
  endloop
endfacet
facet normal 1.0 0.0 0.0
  outer loop
    vertex 8.600000000000007 4.640595710722454 7.189448860340721
    vertex 8.600000000000007 14.019676766159174 -0.010551139659277816
    vertex 8.600000000000007 12.336326960372768 7.189448860340721
  endloop
endfacet
facet normal 1.0 0.0 0.0
  outer loop
    vertex 8.600000000000007 4.640595710722454 18.28944886034071
    vertex 8.600000000000007 3.1516477821132254 18.28944886034071
    vertex 8.600000000000007 4.640595710722454 7.189448860340721
  endloop
endfacet
facet normal -1.0 0.0 0.0
  outer loop
    vertex 0.0 1.9516477821132276 7.189448860340721
    vertex 0.0 14.019676766159174 -0.010551139659277816
    vertex 0.0 0.0 -0.010551139659277816
  endloop
endfacet
facet normal -1.0 0.0 0.0
  outer loop
    vertex 0.0 14.019676766159174 -0.010551139659277816
    vertex 0.0 1.9516477821132276 7.189448860340721
    vertex 0.0 4.640595710722454 7.189448860340721
  endloop
endfacet
facet normal -1.0 0.0 0.0
  outer loop
    vertex 0.0 14.019676766159174 -0.010551139659277816
    vertex 0.0 4.640595710722454 7.189448860340721
    vertex 0.0 12.336326960372768 7.189448860340721
  endloop
endfacet
facet normal 0.0 -1.0 0.0
  outer loop
    vertex 2.1561916531867933 3.1516477821132254 18.28944886034071
    vertex 2.1561916531867933 3.1516477821132254 9.88944886034072
    vertex 8.600000000000007 3.1516477821132254 18.28944886034071
  endloop
endfacet
facet normal 0.0 -0.9651706144881215 0.261621262378695
  outer loop
    vertex 8.600000000000007 1.9516477821132276 7.189448860340721
    vertex 0.0 0.0 -0.010551139659277816
    vertex 8.600000000000007 0.0 -0.010551139659277816
  endloop
endfacet
facet normal 0.0 -0.9651706144881215 0.261621262378695
  outer loop
    vertex 0.0 0.0 -0.010551139659277816
    vertex 8.600000000000007 1.9516477821132276 7.189448860340721
    vertex 0.0 1.9516477821132276 7.189448860340721
  endloop
endfacet
facet normal 0.0 -0.9942070475658493 0.10748184298009168
  outer loop
    vertex 8.600000000000007 3.1516477821132254 18.28944886034071
    vertex 0.0 1.9516477821132276 7.189448860340721
    vertex 8.600000000000007 1.9516477821132276 7.189448860340721
  endloop
endfacet
facet normal -0.7814061653488408 9.600262237080442e-17 0.6240227598051374
  outer loop
    vertex 2.1561916531867933 3.1516477821132254 9.88944886034072
    vertex 0.0 4.640595710722454 7.189448860340721
    vertex 0.0 1.9516477821132276 7.189448860340721
  endloop
endfacet
facet normal -0.7814061653488408 9.600262237080442e-17 0.6240227598051374
  outer loop
    vertex 0.0 4.640595710722454 7.189448860340721
    vertex 2.1561916531867933 3.1516477821132254 9.88944886034072
    vertex 2.1561916531867933 4.640595710722454 9.88944886034072
  endloop
endfacet
facet normal -0.7921834776017624 0.05609156889665759 0.6076998220449713
  outer loop
    vertex 2.1561916531867933 3.1516477821132254 9.88944886034072
    vertex 0.0 1.9516477821132276 7.189448860340721
    vertex 8.600000000000007 3.1516477821132254 18.28944886034071
  endloop
endfacet
endsolid SingleFLAG
